<svg width="167" height="54" viewBox="0 0 167 54" fill="none" xmlns="http://www.w3.org/2000/svg">
<path d="M135.937 20.4974L154.308 38.3447" stroke="#B03A2E" stroke-width="8"/>
<path d="M134.037 25.3901L108.774 43.5091" stroke="#B03A2E" stroke-width="9"/>
<line y1="-2.5" x2="25.5923" y2="-2.5" transform="matrix(0.70403 0.71017 -0.864434 0.502746 118.995 5.19482)" stroke="#B03A2E" stroke-width="5"/>
<line y1="-2.5" x2="26.8375" y2="-2.5" transform="matrix(-0.818557 0.574425 -0.767216 -0.641389 160.499 5.8064)" stroke="#B03A2E" stroke-width="5"/>
<ellipse cx="111.709" cy="40.568" rx="12.3462" ry="9.78269" fill="#D9232D"/>
<ellipse cx="122.505" cy="5.2534" rx="5.74257" ry="4.89134" fill="#D9232D"/>
<ellipse cx="160.624" cy="5.43143" rx="6.37571" ry="5.43143" fill="#D9232D"/>
<ellipse cx="153.017" cy="38.0971" rx="10.0226" ry="8.44362" fill="#D9232D"/>
<ellipse cx="135.955" cy="21.7547" rx="10.1302" ry="7.7591" fill="#D9232D"/>
<path d="M135.257 21.9336L153.627 39.7808" stroke="#6F6F6F" stroke-width="7"/>
<path d="M135.257 23.1565L109.994 41.2755" stroke="#6F6F6F" stroke-width="7"/>
<line y1="-2.5" x2="25.5922" y2="-2.5" transform="matrix(0.704029 0.710171 -0.864434 0.502747 118.949 7.85181)" stroke="#6F6F6F" stroke-width="5"/>
<line y1="-2.5" x2="26.8375" y2="-2.5" transform="matrix(-0.818557 0.574426 -0.767215 -0.64139 155.386 6.62903)" stroke="#6F6F6F" stroke-width="5"/>
<ellipse cx="110.346" cy="40.1309" rx="12.3462" ry="9.78269" transform="rotate(-22.9412 110.346 40.1309)" fill="#6F6F6F"/>
<path d="M121.255 35.5134C123.214 40.1404 120.095 46.0844 113.964 48.6793C107.834 51.2742 101.395 49.3754 99.4369 44.7484C97.4785 40.1213 100.597 34.1773 106.728 31.5824C112.859 28.9875 119.297 30.8863 121.255 35.5134Z" stroke="#D9232D" stroke-opacity="0.56"/>
<ellipse cx="133.722" cy="23.1411" rx="10.345" ry="8.19701" transform="rotate(-16.7342 133.722 23.1411)" fill="#6F6F6F"/>
<path d="M136.226 31.4698C141.852 29.7783 145.52 24.7162 144.108 20.0185C142.695 15.3208 136.844 13.1209 131.218 14.8124C125.592 16.5039 121.924 21.566 123.336 26.2637C124.749 30.9614 130.6 33.1613 136.226 31.4698Z" stroke="#D9232D" stroke-opacity="0.51"/>
<ellipse cx="120.408" cy="5.114" rx="5.946" ry="4.89134" fill="#6F6F6F"/>
<path d="M125.854 5.114C125.854 7.45239 123.511 9.50534 120.408 9.50534C117.304 9.50534 114.962 7.45239 114.962 5.114C114.962 2.77561 117.304 0.722656 120.408 0.722656C123.511 0.722656 125.854 2.77561 125.854 5.114Z" stroke="#D9232D" stroke-opacity="0.52"/>
<ellipse cx="160.372" cy="5.71495" rx="5.74171" ry="4.89134" fill="#6F6F6F"/>
<path d="M165.614 5.71495C165.614 8.06807 163.345 10.1063 160.372 10.1063C157.399 10.1063 155.131 8.06807 155.131 5.71495C155.131 3.36184 157.399 1.32361 160.372 1.32361C163.345 1.32361 165.614 3.36184 165.614 5.71495Z" stroke="#D9232D" stroke-opacity="0.45"/>
<ellipse cx="151.387" cy="38.1198" rx="9.07191" ry="7.64272" fill="#6F6F6F"/>
<path d="M159.959 38.1198C159.959 41.9877 156.205 45.2625 151.387 45.2625C146.569 45.2625 142.815 41.9877 142.815 38.1198C142.815 34.2519 146.569 30.9771 151.387 30.9771C156.205 30.9771 159.959 34.2519 159.959 38.1198Z" stroke="#D9232D" stroke-opacity="0.52"/>
<path d="M0 26.4458L97.5 26.4458" stroke="#6F6F6F" stroke-width="2"/>
<path d="M1.8 23.1584V10.5584H8.46C8.772 10.5584 9.06 10.6784 9.324 10.9184L11.052 12.3584C11.34 12.5984 11.484 12.8384 11.484 13.0784V20.6384C11.484 20.8784 11.34 21.1184 11.052 21.3584L9.324 22.7984C9.06 23.0384 8.772 23.1584 8.46 23.1584H1.8ZM9.972 20.0984V13.6184C9.972 13.3784 9.828 13.1384 9.54 12.8984L8.676 12.1784C8.412 11.9384 8.124 11.8184 7.812 11.8184H3.312V21.8984H7.812C8.124 21.8984 8.412 21.7784 8.676 21.5384L9.54 20.8184C9.828 20.5784 9.972 20.3384 9.972 20.0984ZM15.496 23.1584H13.984V14.1584H15.496V23.1584ZM15.658 11.3504V11.4944C15.658 11.7224 15.646 11.8664 15.622 11.9264C15.61 11.9864 15.556 12.0584 15.46 12.1424C15.364 12.2384 15.142 12.2864 14.794 12.2864H14.704C14.44 12.2864 14.278 12.2804 14.218 12.2684C14.158 12.2564 14.086 12.2144 14.002 12.1424C13.918 12.0584 13.864 11.9864 13.84 11.9264C13.828 11.8664 13.822 11.7224 13.822 11.4944V11.3504C13.822 11.1224 13.828 10.9784 13.84 10.9184C13.864 10.8584 13.924 10.7864 14.02 10.7024C14.092 10.6304 14.158 10.5884 14.218 10.5764C14.278 10.5644 14.44 10.5584 14.704 10.5584H14.776C15.136 10.5584 15.37 10.6064 15.478 10.7024C15.562 10.7864 15.61 10.8584 15.622 10.9184C15.646 10.9784 15.658 11.1224 15.658 11.3504ZM23.4505 17.9384C23.7385 17.9384 24.0265 18.0584 24.3145 18.2984L24.7465 18.6584C25.0345 18.8984 25.1785 19.1984 25.1785 19.5584V21.5384C25.1785 21.8984 25.0345 22.1984 24.7465 22.4384L24.3145 22.7984C24.0265 23.0384 23.7385 23.1584 23.4505 23.1584H19.4545C19.1665 23.1584 18.8785 23.0384 18.5905 22.7984L18.1585 22.4384C17.8705 22.1984 17.7265 21.8984 17.7265 21.5384V20.8184H19.2385V21.1604C19.2385 21.3404 19.2445 21.4604 19.2565 21.5204C19.2805 21.5684 19.3465 21.6344 19.4545 21.7184C19.5625 21.8024 19.6465 21.8564 19.7065 21.8804C19.7665 21.8924 19.9045 21.8984 20.1205 21.8984H22.7845C23.0005 21.8984 23.1385 21.8924 23.1985 21.8804C23.2585 21.8564 23.3425 21.8024 23.4505 21.7184C23.5585 21.6344 23.6185 21.5684 23.6305 21.5204C23.6545 21.4604 23.6665 21.3404 23.6665 21.1604V19.7024C23.6545 19.6064 23.5825 19.4984 23.4505 19.3784C23.3425 19.2944 23.2585 19.2464 23.1985 19.2344C23.1385 19.2104 23.0005 19.1984 22.7845 19.1984H19.6345C19.3465 19.1984 19.0585 19.0784 18.7705 18.8384L18.3385 18.4784C18.0505 18.2384 17.9065 17.9384 17.9065 17.5784V15.7784C17.9065 15.4184 18.0505 15.1184 18.3385 14.8784L18.7705 14.5184C19.0585 14.2784 19.3465 14.1584 19.6345 14.1584H23.4505C23.7385 14.1584 24.0265 14.2784 24.3145 14.5184L24.7465 14.8784C25.0345 15.1184 25.1785 15.4184 25.1785 15.7784V16.4984H23.6665V16.1564C23.6665 15.9764 23.6545 15.8624 23.6305 15.8144C23.6185 15.7544 23.5585 15.6824 23.4505 15.5984C23.3425 15.5144 23.2585 15.4664 23.1985 15.4544C23.1385 15.4304 23.0005 15.4184 22.7845 15.4184H20.3005C20.0845 15.4184 19.9465 15.4304 19.8865 15.4544C19.8265 15.4664 19.7425 15.5144 19.6345 15.5984C19.5265 15.6824 19.4605 15.7544 19.4365 15.8144C19.4245 15.8624 19.4185 15.9764 19.4185 16.1564V17.2004C19.4185 17.3804 19.4245 17.5004 19.4365 17.5604C19.4605 17.6084 19.5265 17.6744 19.6345 17.7584C19.7425 17.8424 19.8265 17.8964 19.8865 17.9204C19.9465 17.9324 20.0845 17.9384 20.3005 17.9384H23.4505ZM29.4117 11.6384V14.1584H31.7157C31.8717 14.2784 31.9617 14.3744 31.9857 14.4464C32.0217 14.5064 32.0397 14.6744 32.0397 14.9504V15.4184H29.4117V21.1604C29.4117 21.3404 29.4177 21.4604 29.4297 21.5204C29.4537 21.5684 29.5197 21.6344 29.6277 21.7184C29.7357 21.8024 29.8197 21.8564 29.8797 21.8804C29.9397 21.8924 30.0777 21.8984 30.2937 21.8984H31.9317C32.0877 22.0184 32.1777 22.1144 32.2017 22.1864C32.2377 22.2464 32.2557 22.4144 32.2557 22.6904V23.1584H29.6277C29.3397 23.1584 29.0517 23.0384 28.7637 22.7984L28.3317 22.4384C28.0437 22.1984 27.8997 21.8984 27.8997 21.5384V15.4184H27.0357C26.8797 15.2984 26.7837 15.2084 26.7477 15.1484C26.7237 15.0764 26.7117 14.9024 26.7117 14.6264V14.1584H27.8997V11.6384H29.4117ZM34.1445 14.1584H34.7745C34.9905 14.1584 35.1345 14.1764 35.2065 14.2124C35.2905 14.2364 35.4045 14.3084 35.5485 14.4284C35.7405 14.5844 35.8365 14.7344 35.8365 14.8784H35.9085C35.9085 14.7344 36.0405 14.5844 36.3045 14.4284C36.5205 14.2964 36.6645 14.2184 36.7365 14.1944C36.8205 14.1704 36.9705 14.1584 37.1865 14.1584H38.8425C39.1305 14.1584 39.4185 14.2784 39.7065 14.5184L40.1385 14.8784L39.0585 15.7784L38.8425 15.5984C38.7345 15.5144 38.6505 15.4664 38.5905 15.4544C38.5305 15.4304 38.3925 15.4184 38.1765 15.4184H37.4025C37.1865 15.4184 37.0365 15.4304 36.9525 15.4544C36.8805 15.4784 36.7365 15.5564 36.5205 15.6884C36.3045 15.8204 36.1785 15.9164 36.1425 15.9764C36.1065 16.0364 36.0885 16.1564 36.0885 16.3364V23.1584H34.5765V16.1564C34.5765 15.9764 34.5645 15.8624 34.5405 15.8144C34.5285 15.7544 34.4685 15.6824 34.3605 15.5984C34.2525 15.5144 34.1865 15.4484 34.1625 15.4004C34.1505 15.3404 34.1445 15.2204 34.1445 15.0404V14.1584ZM43.2519 23.1584H41.7399V14.1584H43.2519V23.1584ZM43.4139 11.3504V11.4944C43.4139 11.7224 43.4019 11.8664 43.3779 11.9264C43.3659 11.9864 43.3119 12.0584 43.2159 12.1424C43.1199 12.2384 42.8979 12.2864 42.5499 12.2864H42.4599C42.1959 12.2864 42.0339 12.2804 41.9739 12.2684C41.9139 12.2564 41.8419 12.2144 41.7579 12.1424C41.6739 12.0584 41.6199 11.9864 41.5959 11.9264C41.5839 11.8664 41.5779 11.7224 41.5779 11.4944V11.3504C41.5779 11.1224 41.5839 10.9784 41.5959 10.9184C41.6199 10.8584 41.6799 10.7864 41.7759 10.7024C41.8479 10.6304 41.9139 10.5884 41.9739 10.5764C42.0339 10.5644 42.1959 10.5584 42.4599 10.5584H42.5319C42.8919 10.5584 43.1259 10.6064 43.2339 10.7024C43.3179 10.7864 43.3659 10.8584 43.3779 10.9184C43.4019 10.9784 43.4139 11.1224 43.4139 11.3504ZM51.7463 21.1604V16.1564C51.7463 15.9764 51.7343 15.8624 51.7103 15.8144C51.6983 15.7544 51.6383 15.6824 51.5303 15.5984C51.4223 15.5144 51.3383 15.4664 51.2783 15.4544C51.2183 15.4304 51.0803 15.4184 50.8643 15.4184H48.3263C48.0983 15.4184 47.9423 15.4304 47.8583 15.4544C47.7863 15.4784 47.6423 15.5564 47.4263 15.6884C47.2103 15.8204 47.0843 15.9164 47.0483 15.9764C47.0123 16.0364 46.9943 16.1564 46.9943 16.3364V20.9804C46.9943 21.1604 47.0123 21.2804 47.0483 21.3404C47.0843 21.4004 47.2103 21.4964 47.4263 21.6284C47.6423 21.7604 47.7863 21.8384 47.8583 21.8624C47.9423 21.8864 48.0923 21.8984 48.3083 21.8984H50.8643C51.0803 21.8984 51.2183 21.8924 51.2783 21.8804C51.3383 21.8564 51.4223 21.8024 51.5303 21.7184C51.6383 21.6344 51.6983 21.5684 51.7103 21.5204C51.7343 21.4604 51.7463 21.3404 51.7463 21.1604ZM46.9943 9.83845V15.0044H47.0663C47.0663 14.8964 47.1983 14.7284 47.4623 14.5004C47.7263 14.2724 47.9543 14.1584 48.1463 14.1584H51.5303C51.8183 14.1584 52.1063 14.2784 52.3943 14.5184L52.8263 14.8784C53.1143 15.1184 53.2583 15.4184 53.2583 15.7784V21.5384C53.2583 21.8984 53.1143 22.1984 52.8263 22.4384L52.3943 22.7984C52.1063 23.0384 51.8183 23.1584 51.5303 23.1584H48.1643C47.9483 23.1584 47.7983 23.1464 47.7143 23.1224C47.6423 23.0984 47.4983 23.0204 47.2823 22.8884C47.0063 22.7564 46.8623 22.6244 46.8503 22.4924H46.7783V23.1584H45.4823V9.83845H46.9943ZM59.968 23.1584H57.142C56.854 23.1584 56.566 23.0384 56.278 22.7984L55.846 22.4384C55.558 22.1984 55.414 21.8984 55.414 21.5384V14.1584H56.926V21.1604C56.926 21.3404 56.932 21.4604 56.944 21.5204C56.968 21.5684 57.034 21.6344 57.142 21.7184C57.25 21.8024 57.334 21.8564 57.394 21.8804C57.454 21.8924 57.592 21.8984 57.808 21.8984H59.752C59.968 21.8984 60.112 21.8864 60.184 21.8624C60.268 21.8384 60.418 21.7604 60.634 21.6284C60.85 21.4964 60.976 21.4004 61.012 21.3404C61.048 21.2804 61.066 21.1604 61.066 20.9804V14.1584H62.578V21.1604C62.578 21.3404 62.584 21.4604 62.596 21.5204C62.62 21.5684 62.686 21.6344 62.794 21.7184C62.902 21.8024 62.962 21.8744 62.974 21.9344C62.998 21.9824 63.01 22.0964 63.01 22.2764V23.1584H62.38C62.164 23.1584 62.014 23.1464 61.93 23.1224C61.858 23.0864 61.75 23.0084 61.606 22.8884C61.414 22.7324 61.318 22.5824 61.318 22.4384H61.246C61.246 22.5824 61.114 22.7324 60.85 22.8884C60.634 23.0204 60.484 23.0984 60.4 23.1224C60.328 23.1464 60.184 23.1584 59.968 23.1584ZM66.7538 23.1584H65.2418V14.1584H66.7538V23.1584ZM66.9158 11.3504V11.4944C66.9158 11.7224 66.9038 11.8664 66.8798 11.9264C66.8678 11.9864 66.8138 12.0584 66.7178 12.1424C66.6218 12.2384 66.3998 12.2864 66.0518 12.2864H65.9618C65.6978 12.2864 65.5358 12.2804 65.4758 12.2684C65.4158 12.2564 65.3438 12.2144 65.2598 12.1424C65.1758 12.0584 65.1218 11.9864 65.0978 11.9264C65.0858 11.8664 65.0798 11.7224 65.0798 11.4944V11.3504C65.0798 11.1224 65.0858 10.9784 65.0978 10.9184C65.1218 10.8584 65.1818 10.7864 65.2778 10.7024C65.3498 10.6304 65.4158 10.5884 65.4758 10.5764C65.5358 10.5644 65.6978 10.5584 65.9618 10.5584H66.0338C66.3938 10.5584 66.6278 10.6064 66.7358 10.7024C66.8198 10.7864 66.8678 10.8584 66.8798 10.9184C66.9038 10.9784 66.9158 11.1224 66.9158 11.3504ZM73.9523 15.4184H71.3783C71.1623 15.4184 71.0243 15.4304 70.9643 15.4544C70.9043 15.4664 70.8203 15.5144 70.7123 15.5984C70.6043 15.6824 70.5383 15.7544 70.5143 15.8144C70.5023 15.8624 70.4963 15.9764 70.4963 16.1564V21.1604C70.4963 21.3404 70.5023 21.4604 70.5143 21.5204C70.5383 21.5684 70.6043 21.6344 70.7123 21.7184C70.8203 21.8024 70.9043 21.8564 70.9643 21.8804C71.0243 21.8924 71.1623 21.8984 71.3783 21.8984H73.9343C74.1503 21.8984 74.2943 21.8864 74.3663 21.8624C74.4503 21.8384 74.6003 21.7604 74.8163 21.6284C75.0323 21.4964 75.1583 21.4004 75.1943 21.3404C75.2303 21.2804 75.2483 21.1604 75.2483 20.9804V16.4984C75.2483 16.2584 75.1043 16.0184 74.8163 15.7784C74.5283 15.5384 74.2403 15.4184 73.9523 15.4184ZM74.1503 23.1584H70.7123C70.4243 23.1584 70.1363 23.0384 69.8483 22.7984L69.4163 22.4384C69.1283 22.1984 68.9843 21.8984 68.9843 21.5384V15.7784C68.9843 15.4184 69.1283 15.1184 69.4163 14.8784L69.8483 14.5184C70.1363 14.2784 70.4243 14.1584 70.7123 14.1584H73.8803C74.1683 14.1584 74.4563 14.2784 74.7443 14.5184C75.0323 14.8064 75.1763 14.9864 75.1763 15.0584H75.2483V9.83845H76.7603V21.1604C76.7603 21.3404 76.7663 21.4604 76.7783 21.5204C76.8023 21.5684 76.8683 21.6344 76.9763 21.7184C77.0843 21.8024 77.1443 21.8744 77.1563 21.9344C77.1803 21.9824 77.1923 22.0964 77.1923 22.2764V23.1584H76.5623C76.3463 23.1584 76.1963 23.1464 76.1123 23.1224C76.0403 23.0864 75.9323 23.0084 75.7883 22.8884C75.5963 22.7324 75.5003 22.5824 75.5003 22.4384H75.4283C75.4283 22.5824 75.2963 22.7324 75.0323 22.8884C74.8163 23.0204 74.6663 23.0984 74.5823 23.1224C74.5103 23.1464 74.3663 23.1584 74.1503 23.1584ZM81.1014 14.1584H85.4214C85.7094 14.1584 85.9974 14.2784 86.2854 14.5184L86.7174 14.8784C87.0054 15.1184 87.1494 15.4184 87.1494 15.7784V21.5384C87.1494 21.8984 87.0054 22.1984 86.7174 22.4384L86.2854 22.7984C85.9974 23.0384 85.7094 23.1584 85.4214 23.1584H81.1014C80.8134 23.1584 80.5254 23.0384 80.2374 22.7984L79.8054 22.4384C79.5174 22.1984 79.3734 21.8984 79.3734 21.5384V15.7784C79.3734 15.4184 79.5174 15.1184 79.8054 14.8784L80.2374 14.5184C80.5254 14.2784 80.8134 14.1584 81.1014 14.1584ZM85.6374 21.1604V16.1564C85.6374 15.9764 85.6254 15.8624 85.6014 15.8144C85.5894 15.7544 85.5294 15.6824 85.4214 15.5984C85.3134 15.5144 85.2294 15.4664 85.1694 15.4544C85.1094 15.4304 84.9714 15.4184 84.7554 15.4184H81.7674C81.5514 15.4184 81.4134 15.4304 81.3534 15.4544C81.2934 15.4664 81.2094 15.5144 81.1014 15.5984C80.9934 15.6824 80.9274 15.7544 80.9034 15.8144C80.8914 15.8624 80.8854 15.9764 80.8854 16.1564V21.1604C80.8854 21.3404 80.8914 21.4604 80.9034 21.5204C80.9274 21.5684 80.9934 21.6344 81.1014 21.7184C81.2094 21.8024 81.2934 21.8564 81.3534 21.8804C81.4134 21.8924 81.5514 21.8984 81.7674 21.8984H84.7554C84.9714 21.8984 85.1094 21.8924 85.1694 21.8804C85.2294 21.8564 85.3134 21.8024 85.4214 21.7184C85.5294 21.6344 85.5894 21.5684 85.6014 21.5204C85.6254 21.4604 85.6374 21.3404 85.6374 21.1604ZM89.3222 14.1584H89.9522C90.1682 14.1584 90.3122 14.1764 90.3842 14.2124C90.4682 14.2364 90.5822 14.3084 90.7262 14.4284C90.9182 14.5844 91.0142 14.7344 91.0142 14.8784H91.0862C91.0862 14.7344 91.2182 14.5844 91.4822 14.4284C91.6982 14.2964 91.8422 14.2184 91.9142 14.1944C91.9982 14.1704 92.1482 14.1584 92.3642 14.1584H94.0202C94.3082 14.1584 94.5962 14.2784 94.8842 14.5184L95.3162 14.8784L94.2362 15.7784L94.0202 15.5984C93.9122 15.5144 93.8282 15.4664 93.7682 15.4544C93.7082 15.4304 93.5702 15.4184 93.3542 15.4184H92.5802C92.3642 15.4184 92.2142 15.4304 92.1302 15.4544C92.0582 15.4784 91.9142 15.5564 91.6982 15.6884C91.4822 15.8204 91.3562 15.9164 91.3202 15.9764C91.2842 16.0364 91.2662 16.1564 91.2662 16.3364V23.1584H89.7542V16.1564C89.7542 15.9764 89.7422 15.8624 89.7182 15.8144C89.7062 15.7544 89.6462 15.6824 89.5382 15.5984C89.4302 15.5144 89.3642 15.4484 89.3402 15.4004C89.3282 15.3404 89.3222 15.2204 89.3222 15.0404V14.1584Z" fill="#D9232D"/>
<path d="M41.6265 31.8384H43.1385V44.4384H41.6265V38.5884H35.0745V44.4384H33.5625V31.8384H35.0745V37.4184H41.6265V31.8384ZM52.794 42.8184L53.874 43.7184L53.442 44.0784C53.226 44.2584 53.076 44.3664 52.992 44.4024C52.92 44.4264 52.776 44.4384 52.56 44.4384H47.754C47.466 44.4384 47.178 44.3184 46.89 44.0784L46.458 43.7184C46.17 43.4784 46.026 43.1784 46.026 42.8184V37.0584C46.026 36.6984 46.17 36.3984 46.458 36.1584L46.89 35.7984C47.178 35.5584 47.466 35.4384 47.754 35.4384H51.948C52.188 35.4384 52.476 35.5584 52.812 35.7984L53.262 36.1584C53.55 36.3744 53.694 36.6744 53.694 37.0584V40.7484H47.538V42.4404C47.538 42.6204 47.544 42.7404 47.556 42.8004C47.58 42.8484 47.646 42.9144 47.754 42.9984C47.862 43.0824 47.946 43.1364 48.006 43.1604C48.066 43.1724 48.204 43.1784 48.42 43.1784H51.912C52.128 43.1784 52.272 43.1664 52.344 43.1424C52.428 43.1064 52.578 42.9984 52.794 42.8184ZM52.182 39.5784V37.4364C52.182 37.2564 52.17 37.1424 52.146 37.0944C52.134 37.0344 52.074 36.9624 51.966 36.8784C51.858 36.7944 51.774 36.7464 51.714 36.7344C51.654 36.7104 51.516 36.6984 51.3 36.6984H48.42C48.204 36.6984 48.066 36.7104 48.006 36.7344C47.946 36.7464 47.862 36.7944 47.754 36.8784C47.646 36.9624 47.58 37.0344 47.556 37.0944C47.544 37.1424 47.538 37.2564 47.538 37.4364V39.5784H52.182ZM55.8522 35.4384H56.4822C56.6982 35.4384 56.8422 35.4564 56.9142 35.4924C56.9982 35.5164 57.1122 35.5884 57.2562 35.7084C57.4482 35.8644 57.5442 36.0144 57.5442 36.1584H57.6162C57.6162 36.0144 57.7482 35.8644 58.0122 35.7084C58.2282 35.5764 58.3722 35.4984 58.4442 35.4744C58.5282 35.4504 58.6782 35.4384 58.8942 35.4384H60.5502C60.8382 35.4384 61.1262 35.5584 61.4142 35.7984L61.8462 36.1584L60.7662 37.0584L60.5502 36.8784C60.4422 36.7944 60.3582 36.7464 60.2982 36.7344C60.2382 36.7104 60.1002 36.6984 59.8842 36.6984H59.1102C58.8942 36.6984 58.7442 36.7104 58.6602 36.7344C58.5882 36.7584 58.4442 36.8364 58.2282 36.9684C58.0122 37.1004 57.8862 37.1964 57.8502 37.2564C57.8142 37.3164 57.7962 37.4364 57.7962 37.6164V44.4384H56.2842V37.4364C56.2842 37.2564 56.2722 37.1424 56.2482 37.0944C56.2362 37.0344 56.1762 36.9624 56.0682 36.8784C55.9602 36.7944 55.8942 36.7284 55.8702 36.6804C55.8582 36.6204 55.8522 36.5004 55.8522 36.3204V35.4384ZM70.3777 36.3024H70.4497C70.4617 36.1944 70.5757 36.0624 70.7917 35.9064L71.0617 35.7084C71.2777 35.5764 71.4217 35.4984 71.4937 35.4744C71.5777 35.4504 71.7277 35.4384 71.9437 35.4384H74.8057C75.0937 35.4384 75.3817 35.5584 75.6697 35.7984L76.1017 36.1584C76.3897 36.3984 76.5337 36.6984 76.5337 37.0584V44.4384H75.0217V37.4364C75.0217 37.2564 75.0097 37.1424 74.9857 37.0944C74.9737 37.0344 74.9137 36.9624 74.8057 36.8784C74.6977 36.7944 74.6137 36.7464 74.5537 36.7344C74.4937 36.7104 74.3557 36.6984 74.1397 36.6984H72.1597C71.9437 36.6984 71.7937 36.7104 71.7097 36.7344C71.6377 36.7584 71.4937 36.8364 71.2777 36.9684C71.0017 37.1364 70.8577 37.2924 70.8457 37.4364V44.4384H69.3337V37.4364C69.3337 37.2564 69.3217 37.1424 69.2977 37.0944C69.2857 37.0344 69.2257 36.9624 69.1177 36.8784C69.0097 36.7944 68.9257 36.7464 68.8657 36.7344C68.8057 36.7104 68.6677 36.6984 68.4517 36.6984H66.6337C66.4177 36.6984 66.2677 36.7104 66.1837 36.7344C66.1117 36.7584 65.9677 36.8364 65.7517 36.9684C65.5357 37.1004 65.4097 37.1964 65.3737 37.2564C65.3377 37.3164 65.3197 37.4364 65.3197 37.6164V44.4384H63.8077V37.4364C63.8077 37.2564 63.7957 37.1424 63.7717 37.0944C63.7597 37.0344 63.6997 36.9624 63.5917 36.8784C63.4837 36.7944 63.4177 36.7284 63.3937 36.6804C63.3817 36.6204 63.3757 36.5004 63.3757 36.3204V35.4384H64.0057C64.2217 35.4384 64.3657 35.4564 64.4377 35.4924C64.5217 35.5164 64.6357 35.5884 64.7797 35.7084C64.9717 35.8644 65.0677 36.0144 65.0677 36.1584H65.1397C65.1397 36.0144 65.2717 35.8644 65.5357 35.7084C65.7517 35.5764 65.8957 35.4984 65.9677 35.4744C66.0517 35.4504 66.2017 35.4384 66.4177 35.4384H69.1177C69.4057 35.4384 69.6937 35.5584 69.9817 35.7984C70.2337 36.0264 70.3657 36.1944 70.3777 36.3024ZM85.4542 42.8184L86.5342 43.7184L86.1022 44.0784C85.8862 44.2584 85.7362 44.3664 85.6522 44.4024C85.5802 44.4264 85.4362 44.4384 85.2202 44.4384H80.4142C80.1262 44.4384 79.8382 44.3184 79.5502 44.0784L79.1182 43.7184C78.8302 43.4784 78.6862 43.1784 78.6862 42.8184V37.0584C78.6862 36.6984 78.8302 36.3984 79.1182 36.1584L79.5502 35.7984C79.8382 35.5584 80.1262 35.4384 80.4142 35.4384H84.6082C84.8482 35.4384 85.1362 35.5584 85.4722 35.7984L85.9222 36.1584C86.2102 36.3744 86.3542 36.6744 86.3542 37.0584V40.7484H80.1982V42.4404C80.1982 42.6204 80.2042 42.7404 80.2162 42.8004C80.2402 42.8484 80.3062 42.9144 80.4142 42.9984C80.5222 43.0824 80.6062 43.1364 80.6662 43.1604C80.7262 43.1724 80.8642 43.1784 81.0802 43.1784H84.5722C84.7882 43.1784 84.9322 43.1664 85.0042 43.1424C85.0882 43.1064 85.2382 42.9984 85.4542 42.8184ZM84.8422 39.5784V37.4364C84.8422 37.2564 84.8302 37.1424 84.8062 37.0944C84.7942 37.0344 84.7342 36.9624 84.6262 36.8784C84.5182 36.7944 84.4342 36.7464 84.3742 36.7344C84.3142 36.7104 84.1762 36.6984 83.9602 36.6984H81.0802C80.8642 36.6984 80.7262 36.7104 80.6662 36.7344C80.6062 36.7464 80.5222 36.7944 80.4142 36.8784C80.3062 36.9624 80.2402 37.0344 80.2162 37.0944C80.2042 37.1424 80.1982 37.2564 80.1982 37.4364V39.5784H84.8422ZM94.2364 39.2184C94.5244 39.2184 94.8124 39.3384 95.1004 39.5784L95.5324 39.9384C95.8204 40.1784 95.9644 40.4784 95.9644 40.8384V42.8184C95.9644 43.1784 95.8204 43.4784 95.5324 43.7184L95.1004 44.0784C94.8124 44.3184 94.5244 44.4384 94.2364 44.4384H90.2404C89.9524 44.4384 89.6644 44.3184 89.3764 44.0784L88.9444 43.7184C88.6564 43.4784 88.5124 43.1784 88.5124 42.8184V42.0984H90.0244V42.4404C90.0244 42.6204 90.0304 42.7404 90.0424 42.8004C90.0664 42.8484 90.1324 42.9144 90.2404 42.9984C90.3484 43.0824 90.4324 43.1364 90.4924 43.1604C90.5524 43.1724 90.6904 43.1784 90.9064 43.1784H93.5704C93.7864 43.1784 93.9244 43.1724 93.9844 43.1604C94.0444 43.1364 94.1284 43.0824 94.2364 42.9984C94.3444 42.9144 94.4044 42.8484 94.4164 42.8004C94.4404 42.7404 94.4524 42.6204 94.4524 42.4404V40.9824C94.4404 40.8864 94.3684 40.7784 94.2364 40.6584C94.1284 40.5744 94.0444 40.5264 93.9844 40.5144C93.9244 40.4904 93.7864 40.4784 93.5704 40.4784H90.4204C90.1324 40.4784 89.8444 40.3584 89.5564 40.1184L89.1244 39.7584C88.8364 39.5184 88.6924 39.2184 88.6924 38.8584V37.0584C88.6924 36.6984 88.8364 36.3984 89.1244 36.1584L89.5564 35.7984C89.8444 35.5584 90.1324 35.4384 90.4204 35.4384H94.2364C94.5244 35.4384 94.8124 35.5584 95.1004 35.7984L95.5324 36.1584C95.8204 36.3984 95.9644 36.6984 95.9644 37.0584V37.7784H94.4524V37.4364C94.4524 37.2564 94.4404 37.1424 94.4164 37.0944C94.4044 37.0344 94.3444 36.9624 94.2364 36.8784C94.1284 36.7944 94.0444 36.7464 93.9844 36.7344C93.9244 36.7104 93.7864 36.6984 93.5704 36.6984H91.0864C90.8704 36.6984 90.7324 36.7104 90.6724 36.7344C90.6124 36.7464 90.5284 36.7944 90.4204 36.8784C90.3124 36.9624 90.2464 37.0344 90.2224 37.0944C90.2104 37.1424 90.2044 37.2564 90.2044 37.4364V38.4804C90.2044 38.6604 90.2104 38.7804 90.2224 38.8404C90.2464 38.8884 90.3124 38.9544 90.4204 39.0384C90.5284 39.1224 90.6124 39.1764 90.6724 39.2004C90.7324 39.2124 90.8704 39.2184 91.0864 39.2184H94.2364Z" fill="#D9232D"/>
</svg>
